# xmcd CD database file
#
# Track frame offsets:
#	150
#	37020
#	67497
#	87382
#	108302
#	160280
#	194860
#
# Disc length: 2844 seconds
#
# Revision: 0
# Processed by: cddbd v1.5.1PL0 Copyright (c) Steve Scherf et al.
# Submitted via: CDex 1.51
#
DISCID=6b0b1a07
DTITLE=Chet Baker - September Song
DYEAR=1983
DGENRE=Jazz
TTITLE0=September Song
TTITLE1=My Funny Valentine
TTITLE2=I Remember You
TTITLE3=But Beautiful
TTITLE4=Barbados
TTITLE5=September Song
TTITLE6=Solar
EXTD=YEAR: 1983
EXTT0=
EXTT1=
EXTT2=
EXTT3=
EXTT4=
EXTT5=
EXTT6=
PLAYORDER=
